<svg xmlns:xlink="http://www.w3.org/1999/xlink" width="47" height="46" viewBox="0 0 47 46" fill="none" xmlns="http://www.w3.org/2000/svg"><path fill-rule="evenodd" clip-rule="evenodd" d="M23.0155 3.95323C23.3209 3.79424 23.6804 3.79424 23.9858 3.95323L42.0676 13.3654C42.4351 13.5567 42.6673 13.9478 42.6673 14.3757C42.6673 14.8035 42.4351 15.1946 42.0676 15.3859L23.9858 24.7981C23.6804 24.9571 23.3209 24.9571 23.0155 24.7981L4.93371 15.3859C4.56616 15.1946 4.33398 14.8035 4.33398 14.3757C4.33398 13.9478 4.56616 13.5567 4.93371 13.3654L23.0155 3.95323ZM23.5007 6.22623L7.84481 14.3757L23.5007 22.5251L39.1565 14.3757L23.5007 6.22623Z" fill="#707070"></path><path fill-rule="evenodd" clip-rule="evenodd" d="M4.33398 31.8455V13.416H6.5038V31.1621L22.4157 39.2711V22.6308H24.5856V39.2711L26.6318 38.2283C27.1677 37.9552 27.8194 38.1766 28.0874 38.7228C28.3553 39.269 28.1381 39.9332 27.6022 40.2063L23.9858 42.0493C23.6804 42.2049 23.3209 42.2049 23.0155 42.0493L4.93371 32.8345C4.56616 32.6472 4.33398 32.2643 4.33398 31.8455ZM42.6673 13.416V23.5522C42.6673 24.1629 42.1816 24.658 41.5824 24.658C40.9832 24.658 40.4975 24.1629 40.4975 23.5522V13.416H42.6673Z" fill="#707070"></path><path fill-rule="evenodd" clip-rule="evenodd" d="M15.9455 8.26564C16.1943 7.71732 16.7792 7.50677 17.252 7.79536L32.5672 17.1448C32.885 17.3388 33.084 17.7211 33.084 18.1376V21.8774C33.084 22.497 32.6509 22.9993 32.1167 22.9993C31.5825 22.9993 31.1494 22.497 31.1494 21.8774V18.815L16.351 9.781C15.8782 9.49241 15.6967 8.81396 15.9455 8.26564Z" fill="#707070"></path><path fill-rule="evenodd" clip-rule="evenodd" d="M38.0728 39.9607C37.7033 39.5817 37.711 38.975 38.09 38.6055L39.352 37.375H30.2077C29.6784 37.375 29.2493 36.9459 29.2493 36.4167C29.2493 35.8874 29.6784 35.4583 30.2077 35.4583H39.352L38.09 34.2278C37.711 33.8583 37.7033 33.2516 38.0728 32.8727C38.4423 32.4937 39.049 32.486 39.428 32.8555L42.3767 35.7305C42.5617 35.9109 42.666 36.1583 42.666 36.4167C42.666 36.675 42.5617 36.9225 42.3767 37.1028L39.428 39.9778C39.049 40.3473 38.4423 40.3396 38.0728 39.9607Z" fill="#707070"></path><path fill-rule="evenodd" clip-rule="evenodd" d="M33.7607 34.2193C34.135 33.8451 34.135 33.2383 33.7608 32.864L32.5218 31.625H41.7083C42.2376 31.625 42.6667 31.1959 42.6667 30.6667C42.6667 30.1374 42.2376 29.7083 41.7083 29.7083H32.5218L33.7608 28.4693C34.135 28.095 34.135 27.4882 33.7607 27.114C33.3865 26.7398 32.7797 26.7398 32.4054 27.114L29.5307 29.989C29.1564 30.3633 29.1564 30.97 29.5307 31.3443L32.4054 34.2193C32.7797 34.5936 33.3865 34.5936 33.7607 34.2193Z" fill="#707070"></path></svg>