<svg width="22" height="22" viewBox="0 0 22 22" fill="none" xmlns="http://www.w3.org/2000/svg">
<circle cx="11" cy="11" r="11" fill="white"/>
<mask id="mask0_954_1266" style="mask-type:alpha" maskUnits="userSpaceOnUse" x="4" y="4" width="14" height="14">
<rect x="4" y="4" width="14" height="14" fill="#EE4D2D"/>
</mask>
<g mask="url(#mask0_954_1266)">
<path d="M11.1211 14.6737C10.9409 14.883 10.9645 15.1987 11.1737 15.3789C11.383 15.5591 11.6987 15.5355 11.8789 15.3263L11.1211 14.6737ZM15 10.9355L15.3789 11.2617L15.6598 10.9355L15.3789 10.6092L15 10.9355ZM11.8789 6.54471C11.6987 6.33546 11.383 6.3119 11.1737 6.49209C10.9645 6.67228 10.9409 6.98798 11.1211 7.19723L11.8789 6.54471ZM6.25 10.4355C5.97386 10.4355 5.75 10.6593 5.75 10.9355C5.75 11.2116 5.97386 11.4355 6.25 11.4355L6.25 10.4355ZM11.8789 15.3263L15.3789 11.2617L14.6211 10.6092L11.1211 14.6737L11.8789 15.3263ZM15.3789 10.6092L11.8789 6.54471L11.1211 7.19723L14.6211 11.2617L15.3789 10.6092ZM15 10.4355L6.25 10.4355L6.25 11.4355L15 11.4355L15 10.4355Z" fill="#EE4D2D"/>
</g>
</svg>
