<svg xmlns:xlink="http://www.w3.org/1999/xlink" width="26" height="26" viewBox="0 0 26 26" fill="none" xmlns="http://www.w3.org/2000/svg"><path d="M6.18983 2.67043C6.4471 2.35027 6.82267 2.16602 7.21799 2.16602H18.7827C19.178 2.16602 19.5536 2.35027 19.8108 2.67043L23.3446 7.06808C23.6602 7.46077 23.8337 7.96092 23.8337 8.47813V8.84657C23.8337 10.7412 22.3937 12.2771 20.6175 12.2771C19.5855 12.2771 18.6669 11.7586 18.0785 10.9524C17.49 11.7586 16.5714 12.2771 15.5394 12.2771C14.5073 12.2771 13.5888 11.7586 13.0003 10.9524C12.4118 11.7586 11.4933 12.2771 10.4613 12.2771C9.42921 12.2771 8.51069 11.7586 7.9222 10.9524C7.33371 11.7586 6.4152 12.2771 5.38314 12.2771C3.60691 12.2771 2.16699 10.7412 2.16699 8.84657V8.47813C2.16699 7.96092 2.34044 7.46077 2.656 7.06808L6.18983 2.67043ZM8.59928 8.84657C8.59928 9.94347 9.43292 10.8327 10.4613 10.8327C11.4896 10.8327 12.3232 9.94347 12.3232 8.84657C12.3232 8.4477 12.6264 8.12435 13.0003 8.12435C13.3743 8.12435 13.6774 8.4477 13.6774 8.84657C13.6774 9.94347 14.511 10.8327 15.5394 10.8327C16.5677 10.8327 17.4014 9.94347 17.4014 8.84657C17.4014 8.4477 17.7045 8.12435 18.0785 8.12435C18.4524 8.12435 18.7555 8.4477 18.7555 8.84657C18.7555 9.94347 19.5892 10.8327 20.6175 10.8327C21.6459 10.8327 22.4795 9.94347 22.4795 8.84657V8.47813C22.4795 8.30573 22.4217 8.13901 22.3165 8.00811L18.7827 3.61046H7.21799L3.68416 8.00811C3.57898 8.13901 3.52116 8.30573 3.52116 8.47813V8.84657C3.52116 9.94347 4.3548 10.8327 5.38314 10.8327C6.41148 10.8327 7.24512 9.94347 7.24512 8.84657C7.24512 8.4477 7.54826 8.12435 7.9222 8.12435C8.29614 8.12435 8.59928 8.4477 8.59928 8.84657ZM4.19824 12.9993C4.57219 12.9993 4.87533 13.3227 4.87533 13.7216V22.3882H21.1253V13.7216C21.1253 13.3227 21.4285 12.9993 21.8024 12.9993C22.1764 12.9993 22.4795 13.3227 22.4795 13.7216V22.3882H23.1566C23.5305 22.3882 23.8337 22.7116 23.8337 23.1105C23.8337 23.5093 23.5305 23.8327 23.1566 23.8327H2.84408C2.47013 23.8327 2.16699 23.5093 2.16699 23.1105C2.16699 22.7116 2.47013 22.3882 2.84408 22.3882H3.52116V13.7216C3.52116 13.3227 3.8243 12.9993 4.19824 12.9993ZM6.90658 13.7216C7.28052 13.7216 7.58366 14.0449 7.58366 14.4438V19.4993H18.417V14.4438C18.417 14.0449 18.7201 13.7216 19.0941 13.7216C19.468 13.7216 19.7712 14.0449 19.7712 14.4438V19.4993C19.7712 20.2971 19.1649 20.9438 18.417 20.9438H7.58366C6.83577 20.9438 6.22949 20.2971 6.22949 19.4993V14.4438C6.22949 14.0449 6.53263 13.7216 6.90658 13.7216Z" fill="#0054E1"></path></svg>