<svg xmlns:xlink="http://www.w3.org/1999/xlink" width="39" height="31" viewBox="0 0 39 31" fill="none" xmlns="http://www.w3.org/2000/svg"><path fill-rule="evenodd" clip-rule="evenodd" d="M21.8145 4.63617C21.8145 4.04536 22.2583 3.56641 22.8058 3.56641H31.8264C32.7182 3.56641 33.5499 4.05161 34.0383 4.85681L38.2362 11.7773C38.5179 12.2417 38.6679 12.7846 38.6679 13.3396V22.4656C38.6679 24.0412 37.4843 25.3184 36.0242 25.3184H33.5458C32.9983 25.3184 32.5544 24.8394 32.5544 24.2486C32.5544 23.6578 32.9983 23.1788 33.5458 23.1788H36.0242C36.3892 23.1788 36.6851 22.8595 36.6851 22.4656V13.3396C36.6851 13.2009 36.6476 13.0652 36.5772 12.9491L32.3793 6.02854C32.2572 5.82724 32.0493 5.70594 31.8264 5.70594H22.8058C22.2583 5.70594 21.8145 5.22699 21.8145 4.63617Z" fill="#707070"></path><path fill-rule="evenodd" clip-rule="evenodd" d="M25.1191 8.20063C25.1191 7.60981 25.563 7.13086 26.1105 7.13086H31.0674C31.3989 7.13086 31.7084 7.30962 31.8923 7.60723L35.1969 12.9561C35.3997 13.2843 35.4186 13.7064 35.2461 14.0542C35.0736 14.4021 34.7376 14.6192 34.372 14.6192H26.1105C25.563 14.6192 25.1191 14.1403 25.1191 13.5495V8.20063ZM27.1019 9.2704V12.4797H32.5196L30.5368 9.2704H27.1019Z" fill="#707070"></path><path fill-rule="evenodd" clip-rule="evenodd" d="M6.94325 1.06977C6.94325 0.478951 7.3871 0 7.93463 0H21.153C22.6131 0 23.7967 1.2772 23.7967 2.85271V24.2481C23.7967 24.8389 23.3528 25.3178 22.8053 25.3178H16.1961C15.6486 25.3178 15.2047 24.8389 15.2047 24.2481C15.2047 23.6573 15.6486 23.1783 16.1961 23.1783H21.8139V2.85271C21.8139 2.45884 21.518 2.13954 21.153 2.13954H7.93463C7.3871 2.13954 6.94325 1.66058 6.94325 1.06977ZM3.80388 19.6124C4.3514 19.6124 4.79526 20.0914 4.79526 20.6822V22.4651C4.79526 22.859 5.09116 23.1783 5.45618 23.1783H7.93463C8.48215 23.1783 8.92601 23.6573 8.92601 24.2481C8.92601 24.8389 8.48215 25.3178 7.93463 25.3178H5.45618C3.99612 25.3178 2.8125 24.0406 2.8125 22.4651V20.6822C2.8125 20.0914 3.25636 19.6124 3.80388 19.6124Z" fill="#707070"></path><path fill-rule="evenodd" clip-rule="evenodd" d="M29.4151 21.7528C27.6813 21.7528 26.2757 23.2695 26.2757 25.1404C26.2757 27.0113 27.6813 28.528 29.4151 28.528C31.1489 28.528 32.5545 27.0113 32.5545 25.1404C32.5545 23.2695 31.1489 21.7528 29.4151 21.7528ZM24.293 25.1404C24.293 22.0879 26.5862 19.6133 29.4151 19.6133C32.244 19.6133 34.5372 22.0879 34.5372 25.1404C34.5372 28.193 32.244 30.6675 29.4151 30.6675C26.5862 30.6675 24.293 28.193 24.293 25.1404Z" fill="#707070"></path><path fill-rule="evenodd" clip-rule="evenodd" d="M12.0655 21.7528C10.3317 21.7528 8.92612 23.2695 8.92612 25.1404C8.92612 27.0113 10.3317 28.528 12.0655 28.528C13.7993 28.528 15.2049 27.0113 15.2049 25.1404C15.2049 23.2695 13.7993 21.7528 12.0655 21.7528ZM6.94336 25.1404C6.94336 22.0879 9.23661 19.6133 12.0655 19.6133C14.8944 19.6133 17.1876 22.0879 17.1876 25.1404C17.1876 28.193 14.8944 30.6675 12.0655 30.6675C9.23661 30.6675 6.94336 28.193 6.94336 25.1404Z" fill="#707070"></path><path fill-rule="evenodd" clip-rule="evenodd" d="M20.1621 24.2475C20.1621 23.6567 20.606 23.1777 21.1535 23.1777H24.4581C25.0056 23.1777 25.4495 23.6567 25.4495 24.2475C25.4495 24.8383 25.0056 25.3173 24.4581 25.3173H21.1535C20.606 25.3173 20.1621 24.8383 20.1621 24.2475Z" fill="#707070"></path><path fill-rule="evenodd" clip-rule="evenodd" d="M2.8125 5.5268C2.8125 4.93598 3.25636 4.45703 3.80388 4.45703L15.37 4.45703C15.9175 4.45703 16.3613 4.93598 16.3613 5.5268C16.3613 6.11762 15.9175 6.59657 15.37 6.59657L3.80388 6.59657C3.25636 6.59657 2.8125 6.11762 2.8125 5.5268Z" fill="#707070"></path><path fill-rule="evenodd" clip-rule="evenodd" d="M0.333984 10.8764C0.333984 10.2856 0.77784 9.80664 1.32536 9.80664L8.76071 9.80664C9.30823 9.80664 9.75209 10.2856 9.75209 10.8764C9.75209 11.4672 9.30823 11.9462 8.76071 11.9462L1.32536 11.9462C0.77784 11.9462 0.333984 11.4672 0.333984 10.8764Z" fill="#707070"></path><path fill-rule="evenodd" clip-rule="evenodd" d="M1.98633 16.2241C1.98633 15.6332 2.43018 15.1543 2.97771 15.1543H11.2392C11.7867 15.1543 12.2306 15.6332 12.2306 16.2241C12.2306 16.8149 11.7867 17.2938 11.2392 17.2938H2.97771C2.43018 17.2938 1.98633 16.8149 1.98633 16.2241Z" fill="#707070"></path></svg>